<?xml version="1.0" encoding="UTF-8"?>
<!DOCTYPE svg PUBLIC "-//W3C//DTD SVG 1.1//EN" "http://www.w3.org/Graphics/SVG/1.1/DTD/svg11.dtd">
<svg version="1.1" xmlns="http://www.w3.org/2000/svg" xmlns:xlink="http://www.w3.org/1999/xlink" x="0" y="0" width="1280" height="1280" viewBox="0, 0, 1280, 1280">
  <g id="Background">
    <rect x="0" y="0" width="1280" height="1280" fill="#000000"/>
  </g>
  <g id="Layer_1">
    <path d="M343.864,895.999 L703.982,895.999 L703.982,927.999 L343.864,927.999 L343.864,895.999 z" fill="#00FFFF"/>
    <path d="M276.861,784.01 L876.004,784.01 L876.004,816.01 L276.861,816.01 L276.861,784.01 z" fill="#00FFFF"/>
    <path d="M276.861,464.003 L876.004,464.003 L876.004,496.003 L276.861,496.003 L276.861,464.003 z" fill="#00FFFF"/>
    <path d="M343.864,352.02 L703.982,352.02 L703.982,384.02 L343.864,384.02 L343.864,352.02 z" fill="#00FFFF"/>
    <path d="M640.5,1090.5 C391.972,1090.5 190.5,889.028 190.5,640.5 C190.5,391.972 391.972,190.5 640.5,190.5 C889.028,190.5 1090.5,391.972 1090.5,640.5 C1090.5,889.028 889.028,1090.5 640.5,1090.5 z" fill-opacity="0" stroke="#00FFFF" stroke-width="128"/>
    <path d="M247.669,576 L1032.331,576 L1032.331,704 L247.669,704 L247.669,576 z" fill="#00FFFF"/>
    <path d="M973.354,704 L1151.095,704 L1151.095,832 L973.354,832 L973.354,704 z" fill="#000000"/>
  </g>
</svg>
